<svg width="24" height="24" viewBox="0 0 24 24" fill="none" xmlns="http://www.w3.org/2000/svg">
<path d="M23.4187 11.7132C23.4187 17.6289 19.0349 22.5195 13.34 23.3131C12.8075 23.387 12.2627 23.4256 11.7097 23.4256C11.0714 23.4256 10.4446 23.3747 9.83415 23.2762C4.25824 22.3783 0 17.5427 0 11.7132C0 5.24434 5.2428 0 11.7089 0C18.175 0 23.4187 5.24434 23.4187 11.7132Z" fill="#1877F2"/>
<path d="M13.3399 9.40428V11.9559H16.4954L15.9958 15.393H13.3399V23.3121C12.8074 23.3859 12.2626 23.4245 11.7096 23.4245C11.0713 23.4245 10.4445 23.3736 9.83403 23.2751V15.393H6.92383V11.9559H9.83403V8.83389C9.83403 6.89701 11.4036 5.32617 13.3407 5.32617V5.32781C13.3465 5.32781 13.3514 5.32617 13.3571 5.32617H16.4962V8.29879H14.4451C13.8355 8.29879 13.3407 8.79368 13.3407 9.40346L13.3399 9.40428Z" fill="white"/>
</svg>
