<svg width="24" height="24" viewBox="0 0 24 24" fill="none" xmlns="http://www.w3.org/2000/svg">
<path d="M23.4178 11.7132C23.4178 17.6289 19.0341 22.5195 13.3392 23.3131C12.8067 23.387 12.2619 23.4256 11.7089 23.4256C11.0706 23.4256 10.4438 23.3747 9.83332 23.2762C4.25823 22.3783 0 17.5427 0 11.7132C0 5.24434 5.2428 0 11.7097 0C18.1767 0 23.4195 5.24434 23.4195 11.7132H23.4178Z" fill="#1C1C1B"/>
<path d="M4.74897 5.16602L10.1493 12.3883L4.71533 18.2605H5.93865L10.6966 13.1195L14.5405 18.2605H18.7027L12.9988 10.632L18.057 5.16602H16.8337L12.4524 9.9007L8.91203 5.16602H4.74979H4.74897ZM6.54744 6.06716H8.45913L16.9026 17.3593H14.9909L6.54744 6.06716Z" fill="white"/>
</svg>
