<svg width="24" height="24" viewBox="0 0 24 24" fill="none" xmlns="http://www.w3.org/2000/svg">
<path d="M23.3522 11.6795C23.3522 5.22911 18.1246 0 11.6761 0C5.22757 0 0 5.22911 0 11.6795C0 18.13 5.22757 23.3591 11.6761 23.3591C18.1246 23.3591 23.3522 18.13 23.3522 11.6795Z" fill="#FF0209"/>
<path d="M16.6326 16.8528C16.2847 16.8905 15.9286 16.8971 15.5873 16.8963C12.9249 16.8938 10.2625 16.8914 7.60086 16.8897C6.76316 16.8897 5.8508 16.8626 5.20345 16.33C4.47405 15.7284 4.32227 14.6853 4.2632 13.7415C4.18115 12.448 4.17459 11.1505 4.24186 9.85622C4.27879 9.14548 4.3436 8.41751 4.64964 7.77408C4.86952 7.31201 5.23627 6.89674 5.70558 6.67843C6.25119 6.42483 6.82224 6.46997 7.4097 6.46915C8.81598 6.4675 10.2223 6.46668 11.6286 6.46504C13.0906 6.4634 14.5535 6.46258 16.0156 6.46094C16.7064 6.46094 17.4481 6.47489 18.0118 6.87458C18.7396 7.38998 18.9373 8.37073 19.0284 9.25792C19.1966 10.892 19.199 12.5432 19.0349 14.1773C18.9668 14.8511 18.8536 15.5634 18.4097 16.0747C17.97 16.5819 17.3177 16.7773 16.6334 16.852L16.6326 16.8528Z" fill="white"/>
<path d="M14.0571 11.6801L10.0894 9.38867V13.9715L14.0571 11.6801Z" fill="#FF0209"/>
</svg>
